<svg data-v-423bf9ae="" xmlns="http://www.w3.org/2000/svg" viewBox="0 0 662.3338239016487 60" class="font"><!----><!----><!----><g data-v-423bf9ae="" id="ab84de3e-196b-4ad3-bd31-789031cf95eb" fill="#A78302" transform="matrix(4.166666777045641,0,0,4.166666777045641,0.5416602326699262,-10.333334163383213)"><path d="M8.47 4.20L6.24 9.18L8.47 14L5.84 14L4.17 10.21L2.51 14L-0.13 14L2.10 9.18L-0.13 4.20L2.51 4.20L4.17 8.15L5.84 4.20L8.47 4.20ZM12.82 6.83L12.82 6.83Q14.50 6.83 15.37 7.85L15.37 7.85L15.37 7.85Q16.23 8.88 16.23 10.82L16.23 10.82L16.23 10.82Q16.23 11.12 16.21 11.27L16.21 11.27L11.73 11.27L11.73 11.27Q11.80 11.73 12.05 11.96L12.05 11.96L12.05 11.96Q12.31 12.19 12.84 12.19L12.84 12.19L12.84 12.19Q13.31 12.19 13.57 12.07L13.57 12.07L13.57 12.07Q13.82 11.94 14.03 11.62L14.03 11.62L15.97 12.70L15.97 12.70Q15.58 13.34 14.72 13.75L14.72 13.75L14.72 13.75Q13.86 14.15 12.78 14.15L12.78 14.15L12.78 14.15Q11.07 14.15 10.19 13.15L10.19 13.15L10.19 13.15Q9.31 12.14 9.31 10.49L9.31 10.49L9.31 10.49Q9.31 9.42 9.72 8.60L9.72 8.60L9.72 8.60Q10.12 7.77 10.91 7.30L10.91 7.30L10.91 7.30Q11.70 6.83 12.82 6.83L12.82 6.83ZM11.76 9.81L14.04 9.81L14.04 9.81Q14.07 9.38 13.77 9.06L13.77 9.06L13.77 9.06Q13.47 8.75 12.92 8.75L12.92 8.75L12.92 8.75Q12.43 8.75 12.14 9.01L12.14 9.01L12.14 9.01Q11.86 9.27 11.76 9.81L11.76 9.81ZM22.96 12.28L22.96 12.28Q23.42 12.28 23.97 12.17L23.97 12.17L23.97 12.17Q24.51 12.05 24.58 12.01L24.58 12.01L24.58 14L24.58 14Q24.58 14.01 23.91 14.08L23.91 14.08L23.91 14.08Q23.24 14.15 22.57 14.15L22.57 14.15L22.57 14.15Q21.31 14.15 20.62 13.77L20.62 13.77L20.62 13.77Q19.94 13.38 19.94 12.29L19.94 12.29L19.94 4.75L18.03 4.75L18.03 2.80L22.43 2.80L22.43 11.41L22.43 11.41Q22.43 11.90 22.55 12.09L22.55 12.09L22.55 12.09Q22.67 12.28 22.96 12.28L22.96 12.28ZM32.54 8.95L30.23 8.95L30.23 11.21L30.23 11.21Q30.23 11.83 30.39 12.05L30.39 12.05L30.39 12.05Q30.55 12.28 30.84 12.28L30.84 12.28L30.84 12.28Q31.23 12.28 31.80 12.17L31.80 12.17L31.80 12.17Q32.37 12.05 32.42 12.01L32.42 12.01L32.42 14L32.42 14Q32.20 14.03 31.63 14.09L31.63 14.09L31.63 14.09Q31.05 14.15 30.46 14.15L30.46 14.15L30.46 14.15Q29.16 14.15 28.45 13.78L28.45 13.78L28.45 13.78Q27.73 13.41 27.73 12.29L27.73 12.29L27.73 8.95L25.77 8.95L25.77 7L27.73 7L27.73 4.48L30.23 4.48L30.23 7L32.54 7L32.54 8.95ZM37.84 14.15L37.84 14.15Q36.86 14.15 36.01 13.78L36.01 13.78L36.01 13.78Q35.15 13.41 34.62 12.59L34.62 12.59L34.62 12.59Q34.09 11.76 34.09 10.49L34.09 10.49L34.09 10.49Q34.09 9.21 34.62 8.39L34.62 8.39L34.62 8.39Q35.15 7.57 36.01 7.20L36.01 7.20L36.01 7.20Q36.86 6.83 37.84 6.83L37.84 6.83L37.84 6.83Q38.82 6.83 39.67 7.20L39.67 7.20L39.67 7.20Q40.52 7.57 41.05 8.39L41.05 8.39L41.05 8.39Q41.58 9.21 41.58 10.49L41.58 10.49L41.58 10.49Q41.58 11.76 41.05 12.59L41.05 12.59L41.05 12.59Q40.52 13.41 39.67 13.78L39.67 13.78L39.67 13.78Q38.82 14.15 37.84 14.15L37.84 14.15ZM37.84 12.19L37.84 12.19Q38.26 12.19 38.63 11.88L38.63 11.88L38.63 11.88Q39.00 11.56 39.00 10.49L39.00 10.49L39.00 10.49Q39.00 9.42 38.63 9.11L38.63 9.11L38.63 9.11Q38.26 8.79 37.84 8.79L37.84 8.79L37.84 8.79Q36.67 8.79 36.67 10.49L36.67 10.49L36.67 10.49Q36.67 12.19 37.84 12.19L37.84 12.19ZM46.79 6.85L46.79 6.85Q47.57 6.85 48.24 7.18L48.24 7.18L48.24 7.18Q48.90 7.52 49.31 8.24L49.31 8.24L49.31 8.24Q49.71 8.96 49.71 10.05L49.71 10.05L49.71 14L47.21 14L47.21 9.87L47.21 9.87Q47.21 9.34 47.05 9.07L47.05 9.07L47.05 9.07Q46.90 8.81 46.51 8.81L46.51 8.81L46.51 8.81Q45.86 8.81 45.53 9.34L45.53 9.34L45.53 14L43.02 14L43.02 9.17L43.02 7L44.65 7L45.02 7.59L45.02 7.59Q45.70 6.85 46.79 6.85L46.79 6.85ZM66.49 4.20L66.49 6.15L64.23 6.15L64.23 14L61.73 14L61.73 6.15L59.49 6.15L59.49 4.20L66.49 4.20ZM71.62 6.83L71.62 6.83Q73.30 6.83 74.17 7.85L74.17 7.85L74.17 7.85Q75.03 8.88 75.03 10.82L75.03 10.82L75.03 10.82Q75.03 11.12 75.01 11.27L75.01 11.27L70.53 11.27L70.53 11.27Q70.60 11.73 70.85 11.96L70.85 11.96L70.85 11.96Q71.11 12.19 71.64 12.19L71.64 12.19L71.64 12.19Q72.11 12.19 72.37 12.07L72.37 12.07L72.37 12.07Q72.62 11.94 72.83 11.62L72.83 11.62L74.77 12.70L74.77 12.70Q74.38 13.34 73.52 13.75L73.52 13.75L73.52 13.75Q72.66 14.15 71.58 14.15L71.58 14.15L71.58 14.15Q69.87 14.15 68.99 13.15L68.99 13.15L68.99 13.15Q68.11 12.14 68.11 10.49L68.11 10.49L68.11 10.49Q68.11 9.42 68.52 8.60L68.52 8.60L68.52 8.60Q68.92 7.77 69.71 7.30L69.71 7.30L69.71 7.30Q70.50 6.83 71.62 6.83L71.62 6.83ZM70.56 9.81L72.84 9.81L72.84 9.81Q72.87 9.38 72.57 9.06L72.57 9.06L72.57 9.06Q72.27 8.75 71.72 8.75L71.72 8.75L71.72 8.75Q71.23 8.75 70.95 9.01L70.95 9.01L70.95 9.01Q70.66 9.27 70.56 9.81L70.56 9.81ZM83.64 12.60L83.64 12.60Q83.15 13.44 82.36 13.80L82.36 13.80L82.36 13.80Q81.56 14.15 80.32 14.15L80.32 14.15L80.32 14.15Q78.69 14.15 77.66 13.27L77.66 13.27L77.66 13.27Q76.62 12.38 76.62 10.49L76.62 10.49L76.62 10.49Q76.62 8.58 77.65 7.71L77.65 7.71L77.65 7.71Q78.68 6.83 80.32 6.83L80.32 6.83L80.32 6.83Q81.58 6.83 82.40 7.20L82.40 7.20L82.40 7.20Q83.22 7.57 83.71 8.48L83.71 8.48L81.51 9.72L81.51 9.72Q81.40 9.28 81.08 9.04L81.08 9.04L81.08 9.04Q80.77 8.79 80.28 8.79L80.28 8.79L80.28 8.79Q79.88 8.79 79.65 8.93L79.65 8.93L79.65 8.93Q79.42 9.07 79.31 9.44L79.31 9.44L79.31 9.44Q79.20 9.80 79.20 10.49L79.20 10.49L79.20 10.49Q79.20 11.48 79.45 11.84L79.45 11.84L79.45 11.84Q79.70 12.19 80.28 12.19L80.28 12.19L80.28 12.19Q80.74 12.19 81.00 12.00L81.00 12.00L81.00 12.00Q81.26 11.80 81.41 11.47L81.41 11.47L83.64 12.60ZM88.96 6.85L88.96 6.85Q89.82 6.85 90.39 7.08L90.39 7.08L90.39 7.08Q90.96 7.32 91.27 7.93L91.27 7.93L91.27 7.93Q91.57 8.54 91.57 9.65L91.57 9.65L91.57 14L89.07 14L89.07 10.88L89.07 10.88Q89.07 9.87 88.86 9.34L88.86 9.34L88.86 9.34Q88.65 8.81 88.16 8.81L88.16 8.81L88.16 8.81Q87.86 8.81 87.61 9.03L87.61 9.03L87.61 9.03Q87.35 9.25 87.15 9.56L87.15 9.56L87.15 14L84.64 14L84.64 2.80L87.15 2.80L87.15 7.35L87.15 7.35Q87.98 6.85 88.96 6.85L88.96 6.85ZM97.19 6.85L97.19 6.85Q97.97 6.85 98.64 7.18L98.64 7.18L98.64 7.18Q99.30 7.52 99.71 8.24L99.71 8.24L99.71 8.24Q100.11 8.96 100.11 10.05L100.11 10.05L100.11 14L97.61 14L97.61 9.87L97.61 9.87Q97.61 9.34 97.45 9.07L97.45 9.07L97.45 9.07Q97.30 8.81 96.91 8.81L96.91 8.81L96.91 8.81Q96.26 8.81 95.93 9.34L95.93 9.34L95.93 14L93.42 14L93.42 9.17L93.42 7L95.05 7L95.42 7.59L95.42 7.59Q96.10 6.85 97.19 6.85L97.19 6.85ZM105.04 14.15L105.04 14.15Q104.06 14.15 103.21 13.78L103.21 13.78L103.21 13.78Q102.35 13.41 101.82 12.59L101.82 12.59L101.82 12.59Q101.29 11.76 101.29 10.49L101.29 10.49L101.29 10.49Q101.29 9.21 101.82 8.39L101.82 8.39L101.82 8.39Q102.35 7.57 103.21 7.20L103.21 7.20L103.21 7.20Q104.06 6.83 105.04 6.83L105.04 6.83L105.04 6.83Q106.02 6.83 106.87 7.20L106.87 7.20L106.87 7.20Q107.72 7.57 108.25 8.39L108.25 8.39L108.25 8.39Q108.78 9.21 108.78 10.49L108.78 10.49L108.78 10.49Q108.78 11.76 108.25 12.59L108.25 12.59L108.25 12.59Q107.72 13.41 106.87 13.78L106.87 13.78L106.87 13.78Q106.02 14.15 105.04 14.15L105.04 14.15ZM105.04 12.19L105.04 12.19Q105.46 12.19 105.83 11.88L105.83 11.88L105.83 11.88Q106.20 11.56 106.20 10.49L106.20 10.49L106.20 10.49Q106.20 9.42 105.83 9.11L105.83 9.11L105.83 9.11Q105.46 8.79 105.04 8.79L105.04 8.79L105.04 8.79Q103.87 8.79 103.87 10.49L103.87 10.49L103.87 10.49Q103.87 12.19 105.04 12.19L105.04 12.19ZM115.36 12.28L115.36 12.28Q115.82 12.28 116.37 12.17L116.37 12.17L116.37 12.17Q116.91 12.05 116.98 12.01L116.98 12.01L116.98 14L116.98 14Q116.98 14.01 116.31 14.08L116.31 14.08L116.31 14.08Q115.64 14.15 114.97 14.15L114.97 14.15L114.97 14.15Q113.71 14.15 113.02 13.77L113.02 13.77L113.02 13.77Q112.34 13.38 112.34 12.29L112.34 12.29L112.34 4.75L110.43 4.75L110.43 2.80L114.83 2.80L114.83 11.41L114.83 11.41Q114.83 11.90 114.95 12.09L114.95 12.09L114.95 12.09Q115.07 12.28 115.36 12.28L115.36 12.28ZM121.84 14.15L121.84 14.15Q120.86 14.15 120.01 13.78L120.01 13.78L120.01 13.78Q119.15 13.41 118.62 12.59L118.62 12.59L118.62 12.59Q118.09 11.76 118.09 10.49L118.09 10.49L118.09 10.49Q118.09 9.21 118.62 8.39L118.62 8.39L118.62 8.39Q119.15 7.57 120.01 7.20L120.01 7.20L120.01 7.20Q120.86 6.83 121.84 6.83L121.84 6.83L121.84 6.83Q122.82 6.83 123.67 7.20L123.67 7.20L123.67 7.20Q124.52 7.57 125.05 8.39L125.05 8.39L125.05 8.39Q125.58 9.21 125.58 10.49L125.58 10.49L125.58 10.49Q125.58 11.76 125.05 12.59L125.05 12.59L125.05 12.59Q124.52 13.41 123.67 13.78L123.67 13.78L123.67 13.78Q122.82 14.15 121.84 14.15L121.84 14.15ZM121.84 12.19L121.84 12.19Q122.26 12.19 122.63 11.88L122.63 11.88L122.63 11.88Q123.00 11.56 123.00 10.49L123.00 10.49L123.00 10.49Q123.00 9.42 122.63 9.11L122.63 9.11L122.63 9.11Q122.26 8.79 121.84 8.79L121.84 8.79L121.84 8.79Q120.67 8.79 120.67 10.49L120.67 10.49L120.67 10.49Q120.67 12.19 121.84 12.19L121.84 12.19ZM131.46 12.46L131.46 12.46Q133.92 12.46 133.92 14.24L133.92 14.24L133.92 14.24Q133.92 15.44 133.06 16.16L133.06 16.16L133.06 16.16Q132.20 16.88 130.30 16.88L130.30 16.88L130.30 16.88Q128.69 16.88 127.67 16.44L127.67 16.44L127.67 16.44Q126.64 16.00 126.64 14.97L126.64 14.97L126.64 14.97Q126.64 14.43 126.92 14.12L126.92 14.12L126.92 14.12Q127.20 13.80 127.64 13.55L127.64 13.55L127.64 13.55Q127.06 13.23 127.06 12.68L127.06 12.68L127.06 12.68Q127.06 12.22 127.30 11.96L127.30 11.96L127.30 11.96Q127.54 11.69 127.93 11.47L127.93 11.47L127.93 11.47Q126.80 10.85 126.80 9.37L126.80 9.37L126.80 9.37Q126.80 7.98 127.72 7.41L127.72 7.41L127.72 7.41Q128.63 6.83 130.21 6.83L130.21 6.83L130.21 6.83Q131.52 6.83 132.26 7.17L132.26 7.17L133.00 6.44L134.33 7.70L133.50 8.53L133.50 8.53Q133.62 8.90 133.62 9.37L133.62 9.37L133.62 9.37Q133.62 10.75 132.68 11.33L132.68 11.33L132.68 11.33Q131.74 11.91 130.21 11.91L130.21 11.91L130.21 11.91Q129.96 11.91 129.49 11.89L129.49 11.89L129.49 11.89Q129.47 11.93 129.47 12.00L129.47 12.00L129.47 12.00Q129.47 12.21 129.66 12.33L129.66 12.33L129.66 12.33Q129.85 12.46 130.21 12.46L130.21 12.46L131.45 12.46L131.46 12.46ZM130.21 8.69L130.21 8.69Q129.78 8.69 129.58 8.82L129.58 8.82L129.58 8.82Q129.37 8.95 129.37 9.37L129.37 9.37L129.37 9.37Q129.37 9.80 129.56 9.93L129.56 9.93L129.56 9.93Q129.75 10.05 130.21 10.05L130.21 10.05L130.21 10.05Q130.68 10.05 130.86 9.93L130.86 9.93L130.86 9.93Q131.04 9.80 131.04 9.37L131.04 9.37L131.04 9.37Q131.04 8.97 130.83 8.83L130.83 8.83L130.83 8.83Q130.62 8.69 130.21 8.69L130.21 8.69ZM131.66 14.70L131.66 14.70Q131.68 14.56 131.68 14.52L131.68 14.52L131.68 14.52Q131.68 14.01 130.83 14.01L130.83 14.01L129.96 14.01L129.96 14.01Q129.56 14.01 129.09 13.96L129.09 13.96L129.09 13.96Q128.87 14.25 128.87 14.48L128.87 14.48L128.87 14.48Q128.87 14.57 128.91 14.70L128.91 14.70L128.91 14.70Q129.02 14.98 129.36 15.11L129.36 15.11L129.36 15.11Q129.70 15.23 130.30 15.23L130.30 15.23L130.30 15.23Q130.70 15.23 131.14 15.11L131.14 15.11L131.14 15.11Q131.57 14.99 131.66 14.70L131.66 14.70ZM138.88 5.98L138.88 5.98Q138.15 5.98 137.64 5.47L137.64 5.47L137.64 5.47Q137.13 4.96 137.13 4.23L137.13 4.23L137.13 4.23Q137.13 3.49 137.64 2.98L137.64 2.98L137.64 2.98Q138.15 2.48 138.88 2.48L138.88 2.48L138.88 2.48Q139.62 2.48 140.13 2.98L140.13 2.98L140.13 2.98Q140.63 3.49 140.63 4.23L140.63 4.23L140.63 4.23Q140.63 4.96 140.13 5.47L140.13 5.47L140.13 5.47Q139.62 5.98 138.88 5.98L138.88 5.98ZM140.13 12.05L141.88 12.05L141.88 14L137.62 14L137.62 8.95L135.38 8.95L135.38 7L140.13 7L140.13 12.05ZM147.22 6.83L147.22 6.83Q148.90 6.83 149.77 7.85L149.77 7.85L149.77 7.85Q150.63 8.88 150.63 10.82L150.63 10.82L150.63 10.82Q150.63 11.12 150.61 11.27L150.61 11.27L146.13 11.27L146.13 11.27Q146.20 11.73 146.45 11.96L146.45 11.96L146.45 11.96Q146.71 12.19 147.24 12.19L147.24 12.19L147.24 12.19Q147.71 12.19 147.97 12.07L147.97 12.07L147.97 12.07Q148.22 11.94 148.43 11.62L148.43 11.62L150.37 12.70L150.37 12.70Q149.98 13.34 149.12 13.75L149.12 13.75L149.12 13.75Q148.26 14.15 147.18 14.15L147.18 14.15L147.18 14.15Q145.47 14.15 144.59 13.15L144.59 13.15L144.59 13.15Q143.71 12.14 143.71 10.49L143.71 10.49L143.71 10.49Q143.71 9.42 144.12 8.60L144.12 8.60L144.12 8.60Q144.52 7.77 145.31 7.30L145.31 7.30L145.31 7.30Q146.10 6.83 147.22 6.83L147.22 6.83ZM146.16 9.81L148.44 9.81L148.44 9.81Q148.47 9.38 148.17 9.06L148.17 9.06L148.17 9.06Q147.87 8.75 147.32 8.75L147.32 8.75L147.32 8.75Q146.83 8.75 146.55 9.01L146.55 9.01L146.55 9.01Q146.26 9.27 146.16 9.81L146.16 9.81ZM155.43 14.15L155.43 14.15Q154.08 14.15 153.15 13.76L153.15 13.76L153.15 13.76Q152.21 13.36 151.73 12.66L151.73 12.66L153.66 11.44L153.66 11.44Q153.89 11.83 154.39 12.05L154.39 12.05L154.39 12.05Q154.88 12.28 155.55 12.28L155.55 12.28L155.55 12.28Q156.02 12.28 156.25 12.16L156.25 12.16L156.25 12.16Q156.48 12.04 156.48 11.86L156.48 11.86L156.48 11.86Q156.48 11.68 156.18 11.54L156.18 11.54L156.18 11.54Q155.89 11.40 155.22 11.26L155.22 11.26L155.22 11.26Q153.94 10.98 153.10 10.43L153.10 10.43L153.10 10.43Q152.25 9.88 152.25 8.88L152.25 8.88L152.25 8.88Q152.25 8.26 152.69 7.80L152.69 7.80L152.69 7.80Q153.13 7.34 153.89 7.08L153.89 7.08L153.89 7.08Q154.64 6.83 155.55 6.83L155.55 6.83L155.55 6.83Q156.77 6.83 157.54 7.20L157.54 7.20L157.54 7.20Q158.31 7.56 158.77 8.27L158.77 8.27L157.08 9.42L157.08 9.42Q156.81 9.00 156.45 8.80L156.45 8.80L156.45 8.80Q156.09 8.60 155.55 8.60L155.55 8.60L155.55 8.60Q155.12 8.60 154.85 8.71L154.85 8.71L154.85 8.71Q154.57 8.82 154.57 8.96L154.57 8.96L154.57 8.96Q154.57 9.13 154.78 9.23L154.78 9.23L154.78 9.23Q154.98 9.32 155.40 9.42L155.40 9.42L155.40 9.42Q155.48 9.45 155.56 9.46L155.56 9.46L155.56 9.46Q155.64 9.48 155.71 9.49L155.71 9.49L155.71 9.49Q156.55 9.70 157.19 9.95L157.19 9.95L157.19 9.95Q157.82 10.19 158.33 10.68L158.33 10.68L158.33 10.68Q158.83 11.16 158.83 11.91L158.83 11.91L158.83 11.91Q158.84 13.01 157.91 13.58L157.91 13.58L157.91 13.58Q156.98 14.15 155.43 14.15L155.43 14.15Z"></path></g><!----><!----></svg>