<svg data-v-423bf9ae="" xmlns="http://www.w3.org/2000/svg" viewBox="0 0 224.50143888899203 60" class="font"><!----><!----><!----><g data-v-423bf9ae="" id="33715226-87b6-4230-ab55-0fde068c169d" fill="#A77403" transform="matrix(5.6980058425006375,0,0,5.6980058425006375,-1.1965788173138208,-19.316241119077503)"><path d="M7.06 4.05L4.61 7.67L2.13 4.05L0.49 4.05L3.70 8.58L0.21 13.73L1.86 13.73L4.48 9.76L7.15 13.73L8.86 13.73L5.42 8.72L8.65 4.05ZM15.61 10.49C15.62 10.33 15.64 10.18 15.64 10.00C15.64 7.52 14.32 6.15 12.50 6.15C10.68 6.15 9.38 7.52 9.38 10.00C9.38 12.60 10.82 13.92 12.59 13.92C13.92 13.92 14.74 13.17 15.15 12.61L14.27 11.84C13.93 12.33 13.37 12.71 12.64 12.71C11.66 12.71 10.78 12.03 10.63 10.49ZM12.52 7.35C13.51 7.35 14.24 8.08 14.39 9.49L10.63 9.49C10.77 8.12 11.49 7.35 12.52 7.35ZM17.50 3.84L17.50 13.73L18.83 13.73L18.83 3.39ZM20.20 6.33L20.20 7.42L21.04 7.42L21.04 11.91C21.04 13.19 21.80 13.80 22.71 13.80C23.24 13.80 23.81 13.59 24.08 13.29L24.30 12.07C23.97 12.39 23.63 12.52 23.24 12.52C22.68 12.52 22.37 12.21 22.37 11.62L22.37 7.42L24.26 7.42L24.26 6.33L22.37 6.33L22.37 3.89L21.04 4.33L21.04 6.33ZM28.49 6.15C26.66 6.15 25.35 7.49 25.35 10.02C25.35 12.57 26.64 13.92 28.49 13.92C30.31 13.92 31.61 12.57 31.61 10.02C31.61 7.49 30.30 6.15 28.49 6.15ZM28.49 7.38C29.58 7.38 30.35 8.29 30.35 10.04C30.35 11.77 29.58 12.68 28.49 12.68C27.37 12.68 26.63 11.77 26.63 10.04C26.63 8.29 27.38 7.38 28.49 7.38ZM33.47 6.33L33.47 13.73L34.80 13.73L34.80 8.71C35.21 7.73 35.87 7.41 36.65 7.41C37.63 7.41 38.28 7.90 38.28 9.18L38.28 13.73L39.61 13.73L39.61 9.04C39.61 6.97 38.57 6.15 37.07 6.15C36.06 6.15 35.28 6.52 34.73 7.24L34.73 6.33Z"></path></g><!----><!----></svg>